<?xml version="1.0" encoding="UTF-8"?>
<svg id="Camada_1" xmlns="http://www.w3.org/2000/svg" version="1.1" viewBox="0 0 754 384">
  <!-- Generator: Adobe Illustrator 30.3.0, SVG Export Plug-In . SVG Version: 2.1.3 Build 182)  -->
  <defs>
    <style>
      .st0 {
        fill: #886d26;
      }

      .st0, .st1 {
        fill-rule: evenodd;
      }

      .st1 {
        fill: #cb1517;
      }
    </style>
  </defs>
  <path class="st1" d="M450.64,324.47c.13-5.65.92-11.44,1.83-17,1.29-7.88,2.94-15.74,4.65-23.54l6.47-28.02c-.84.08-1.67.17-2.45.23-3.75.3-7.5.54-11.25.67-5.33.19-10.6.07-15.91-.08-.15.58-.3,1.16-.45,1.74-1.24,4.92-4.37,17.23-5.45,22.19-1.81,8.27-3.44,16.62-4.76,24.98-.9,5.69-1.9,12.21-1.9,17.96,0,4.14.56,21.86,6.85,21.86,3.83,0,7.7-2.65,10.48-5.03,4.74-4.05,8.18-10.82,11.88-15.96M215.94,289.77c-4.43,10.53-5.69,21.93-4.75,33.26.38,4.55,1.73,13.56,7.91,13.56,2.45,0,6.72-5.12,8.04-6.82,5.37-6.95,9.83-15.8,13.43-23.78,3.33-7.38,11.07-26.15-.34-30.18-10.63-3.76-20.37,4.64-24.29,13.97ZM510.8,216.21c.69-7.04,5.07-13.28,11.66-17.56,6.58,4.29,10.97,10.53,11.66,17.56-3.46,2.82-6.61,6.26-9.42,10.23-.94,1.42-1.75,1.78-2.31,1.78-.84-.31-1.73-.87-2.16-1.78-2.81-3.96-5.96-7.41-9.42-10.23ZM670.96,216.21c.69-7.04,5.07-13.28,11.66-17.56,6.58,4.29,10.97,10.53,11.66,17.56-3.46,2.82-6.61,6.26-9.42,10.23-.94,1.42-1.75,1.78-2.31,1.78-.84-.31-1.73-.87-2.16-1.78-2.81-3.96-5.96-7.41-9.42-10.23ZM37.62,361.34c-23.71-15.98-36.01-40.66-30.46-69.39l.03-.24c5.99-40.72,49.23-55.94,80.17-33.49,9.44,6.84,15.51,16.91,11.4,29.36-3.32,10.06-15.8,16.8-19.95,11.38-3.57-4.67,6.94-4.46,5.63-15.94-1.1-9.56-11.9-15.23-24.28-16.77-18.96-2.36-32.46,9.12-35.25,28.06-3.44,16.12,1.19,30.59,12.17,42.66,4.74,5.22,12.29,11.43,18.75,14.54l3.29,1.5-.07.07c21.48,8.52,50.51,8.71,69.52-4.77,8.07-5.73,14.78-13.39,19.27-22.22,4.18-8.22,6.41-17.47,5.77-26.71-.98-14.13-8.51-25.72-19.66-34.13-4.45-3.36-9.26-6.28-14-9.19-9.83-6.03-19.25-11.94-27.26-20.37-6.36-6.69-10.42-15.1-11.45-24.28-.69-6.13.02-12.42,2.1-18.23,2.13-5.96,5.61-11.33,10.2-15.69,7.08-6.73,16.08-10.52,25.74-11.57l.28-.03h.62c14.64-.32,30.31,3.03,39.94,14.96,3.39,4.2,5.69,9.11,6.82,14.39,1.59,7.44-.94,15.59-5.2,20.29-6.27,6.92-20.26,3.12-20.23-.82.06-1.95,1.22-3.5,2.79-4.56,3.84-2.59,7.04-6.42,6.77-11.3-.25-4.63-3.45-8.7-7.08-11.33-4.68-3.39-10.57-4.91-16.3-4.39-7.06.63-15.15,4.08-20.28,8.95-2.29,2.17-4.02,4.85-5.08,7.81-1.06,2.97-1.42,6.17-1.06,9.29.54,4.79,2.71,9.14,6.02,12.63,6.59,6.94,15.06,12.09,23.17,17.07,5.32,3.26,10.66,6.53,15.64,10.29,15.94,12.02,26.23,28.76,27.63,48.86.89,12.87-2.07,25.74-7.9,37.21-5.96,11.72-14.86,21.89-25.58,29.49-20.14,14.28-44.56,18.29-68.46,12.58-12.32-2.94-24.05-8.31-34.16-15.96ZM584.04,299.45c1.61-5.76,3.46-11.4,5.68-16.65,3.47-8.24,8.58-17.06,17.14-20.81,4.53-1.98,9.36-2.26,14.2-1.51,2.46.38,4.81,1.13,6.88,2.54,4.2,2.86,6.06,7.7,7.12,12.47,1.7,7.61,1.89,16.59,2,24.37l.13,9.42c.06,4.56.15,9.14.4,13.7.15,2.69.34,5.71.93,8.35.19.88,1.59,5.42,2.78,5.44,7.17.1,10.75-5.72,14.35-11.06,4.55-6.75,10.03-14.88,13.09-22.41,1.1-2.72,2.12-5.37,3-8.18,1.17-6.49,2.46-13.59,2.83-20.17.13-2.39-.08-5.1-1.34-7.2l-1.72-2.87,3.18-1.04c2.83-.93,8.67-2.96,11.62-2.96,6.61,0,7.21,7.64,6.93,12.57-.39,6.92-1.76,14.28-3.09,21.07l-3.57,18.27c-1.83,9.37-3.7,26.73,5.85,32.96,12.18,7.96,33.56-6.83,42.58-14.17l13.15-10.69-9.22,14.22c-5.84,9.01-14.22,18.78-25.04,21.66-29.17,7.76-48.67-2.19-47.54-29.85-7.64,12.91-18.7,27.95-29.92,27.95-7.35,0-11.85-4.7-14.19-11.34-3.31-9.38-3.52-24.15-3.52-34.05,0-5.69.43-11.25.25-16.99-.08-2.43-.71-15.24-4.08-15.7-1.73-.23-3.42-.09-5.03.59-9.69,4.07-13.73,27.04-15.47,36.16-1.72,9.02-3.11,18.48-5.57,27.3-1.51,5.42-4.36,14.3-10.92,15.23-1.58.23-3.17.02-4.57-.78-4.67-2.66-4.85-10.62-4.86-15.31-.01-7.69.79-15.53,1.19-23.23.42-7.96.87-19.86-2.23-27.31-.26-.52-1.31-2.43-1.86-2.47-.95-.08-3.19,3.4-3.58,4.06-2.8,4.76-4.93,10.84-6.64,16.08-5.27,21.08-11.71,52.51-39.1,52.51-6.06,0-10.61-3.01-13.67-8.17-1.73-2.91-2.78-6.13-3.35-9.45-2.18,2.37-4.54,4.61-6.9,6.63-5.87,5.01-13.41,9.85-21.4,9.85-10.57,0-16.26-9.39-18.72-18.79-2.42,3.32-5.27,6.45-8.18,8.94-5.87,5.01-13.41,9.85-21.4,9.85-6.8,0-11.69-3.94-15.04-9.62-3.62-6.14-5-13.25-5.24-20.4-7.14,11.84-17.89,26.41-28.98,26.41-7.35,0-11.85-4.69-14.19-11.34-3.31-9.38-3.52-24.15-3.52-34.05,0-5.69.43-11.25.25-16.99-.08-2.43-.7-15.24-4.08-15.7-1.72-.23-3.41-.09-5.03.59-9.69,4.07-13.73,27.04-15.47,36.16-1.72,9.02-3.11,18.48-5.57,27.3-1.51,5.42-4.36,14.3-10.93,15.23-1.58.23-3.17.02-4.57-.78-4.67-2.66-4.85-10.62-4.86-15.31-.02-7.69.79-15.53,1.19-23.23.42-7.96.87-19.86-2.23-27.31-.26-.52-1.31-2.43-1.87-2.47-.9-.08-3.05,3.19-3.43,3.81-2.71,4.51-4.78,10.31-6.44,15.3-1.09,3.81-2.2,7.62-3.38,11.41-2.35,7.57-9.6,32.73-19.18,33.67-15.37,1.51-18.74-19.98-19.65-30.95-.09-1.07-.17-2.14-.24-3.22-3.67,8.62-8.24,16.85-13.96,24.29-5.17,6.73-12.73,15.26-21.98,15.26-4.86,0-9.4-1.31-13.23-4.35-10.11-8.01-11.42-24.83-10.79-36.71.53-9.98,3.1-25.3,8.22-34.03,6.42-10.94,18.71-24.19,32.42-24.19,8.24,0,16.76,3.2,22.72,8.98,1.78-1.54,6.04-.87,8.23-.87,12.12,0,7.04,11.1,6.43,18.29-.3,3.55-.86,7.19-1.26,10.74-.68,5.97-1.26,11.96-1.6,17.96-.34,6.07-.55,12.71.21,18.74.21,1.71,1.13,7.53,3.04,8.29.15.06.31.08.25.11,3.37-1.52,9.59-22.38,10.71-26.18,1.63-5.55,3.15-11.13,4.69-16.71,1-3.62,2.01-7.68,3.36-11.19,1.26-4.34,3.21-8.71,6.39-11.98,8.18-8.4,18.96-6.68,23.2,4.52,2.2,5.8,3.09,12.89,3.56,19.06.06.8.11,1.6.16,2.4,1.61-5.76,3.46-11.4,5.67-16.65,3.47-8.24,8.58-17.06,17.14-20.81,4.53-1.98,9.36-2.26,14.2-1.51,2.46.38,4.81,1.13,6.88,2.54,4.2,2.87,6.05,7.7,7.12,12.47,1.7,7.61,1.89,16.59,2,24.37l.13,9.42c.07,4.56.14,9.14.4,13.7.15,2.69.34,5.71.93,8.35.2.88,1.59,5.42,2.78,5.44,7.17.1,10.75-5.72,14.35-11.06,4.31-6.41,8.9-13.93,11.9-21.09,2.34-13.7,7.71-34.98,10.85-48.59-4.74-.53-10.46,1.45-13.67,4.55l-3.84,3.71-.67-5.29c-1.75-13.71,10.83-16.56,21.77-17.54,3.63-12.27,15.19-33.01,25.34-39.05l7.1-4.22-3.28,7.58c-2.89,6.69-4.78,15.84-6.5,22.98-1.05,4.33-2.08,8.7-3.26,13.01h11.08c5.3,0,12.73-.41,18.24-1.46,4.91-13.44,12.65-29.49,24.46-37.78l6.87-4.82-2.82,7.91c-2.51,7.03-4.72,14.44-6.67,21.64-1.25,4.6-2.57,9.66-3.34,14.51h11.57c3.58,0,5.78.23,9.08-1.06l4.58-1.78-.99,4.81c-.81,3.93-1.89,7.74-4.92,10.55-3.26,3.02-7.96,2.87-12.11,2.75l-11.06-.3c-2.08,7.87-4.17,16-5.9,23.93-1.81,8.27-3.44,16.62-4.76,24.98-.9,5.69-1.9,12.21-1.9,17.96,0,4.14.56,21.86,6.85,21.86,3.83,0,7.7-2.65,10.49-5.03,4.74-4.06,8.43-10.15,12.49-15,.93-5.9,2.17-11.75,3.33-17.62,1.24-6.28,2.43-12.6,3.42-18.92.62-3.96,1.24-8.09,1.46-12.09.14-2.39-.08-5.1-1.34-7.2l-1.72-2.87,3.18-1.04c2.83-.93,8.67-2.95,11.61-2.95,6.61,0,7.21,7.64,6.93,12.57-.39,6.92-1.76,14.27-3.09,21.07l-3.57,18.27c-.7,3.6-1.39,7.21-2,10.84-.32,1.91-.69,4.01-.8,5.95-.2,3.51.06,9.99,4.29,11.24,6.91,2.04,11.99-5.55,14.74-10.71,7.59-14.24,10.25-30.62,14.56-46.02,1.26-4.5,3.24-9.08,6.54-12.47,8.18-8.4,18.95-6.68,23.2,4.52,2.2,5.8,3.09,12.89,3.56,19.06.06.8.12,1.6.16,2.4Z"/>
  <path class="st1" d="M352.27,47.47c1.46-14.93,10.76-28.17,24.73-37.27,13.97,9.1,23.27,22.33,24.73,37.27-7.33,5.98-14.03,13.29-19.99,21.7-2,3.01-3.72,3.77-4.91,3.77-1.78-.66-3.67-1.84-4.58-3.77-5.96-8.41-12.65-15.72-19.99-21.7"/>
  <path class="st0" d="M368.41,158.68c-11.76.89-3.09-29.91-14.78-61.16-5.27-11.64-14.35-19.87-23.19-25.05-14.41-8.43-47.67-17.72-68.11-17.75,5.29,14.21,10.32,25.36,18.29,36.42,6.94,9.63,17.47,18.66,27.43,24.04,8.7,4.69,14.93,4.34,23.91,7.03-21.06,6.31-46.69-10.03-55.53-20.78-12.69-15.44-24-33.37-30.03-62.26,36.2-.85,96.96,10.46,114.71,51.43,7.76,17.92,7.24,45.59,7.3,68.08"/>
  <path class="st0" d="M385.59,158.68c11.76.89,3.09-29.91,14.78-61.16,5.27-11.64,14.35-19.87,23.2-25.05,14.41-8.43,47.67-17.72,68.11-17.75-5.29,14.21-10.32,25.36-18.29,36.42-6.94,9.63-17.47,18.66-27.43,24.04-8.7,4.69-14.93,4.34-23.91,7.03,21.06,6.31,46.69-10.03,55.53-20.78,12.69-15.44,24-33.37,30.03-62.26-36.2-.85-96.96,10.46-114.71,51.43-7.76,17.92-7.24,45.59-7.3,68.08"/>
  <path class="st1" d="M351.83,157.11c-39.56,3.25-99.72-22.78-105.71-78.69,12.87,36.42,38.61,56.77,63.41,60.05,25.41,3.36,37.38-4.23,42.3,18.63M402.17,157.11c39.56,3.25,99.72-22.78,105.71-78.69-12.87,36.42-38.61,56.77-63.41,60.05-25.41,3.36-37.38-4.23-42.3,18.63Z"/>
</svg>